<svg width="19" height="20" viewBox="0 0 19 20" fill="none" xmlns="http://www.w3.org/2000/svg">
<path d="M-4.37114e-07 9.99953C-1.95608e-07 15.5245 4.36167 19.9995 9.74107 19.9995C14.0457 19.9995 17.6962 17.1345 18.9832 13.162C19.0749 12.662 18.7734 12.4787 18.5148 12.4787C18.2835 12.4787 17.6706 12.487 16.8585 12.4912C17.4459 15.2729 15.5517 15.8595 15.5517 15.8595C14.4274 16.3145 14.1267 16.972 14.1267 16.972C13.5228 17.8779 13.5352 16.902 13.5352 16.902C13.603 15.8979 14.5389 15.3704 14.5389 15.3704C16.0283 14.4787 15.5979 13.0295 15.3493 12.4579C14.719 12.3679 14.2903 12.1104 14.0466 11.8245C13.8029 14.0454 12.9652 16.3795 9.23304 16.3795C8.16988 16.3795 7.30085 15.992 6.61933 15.3504C6.37316 15.4629 5.3827 15.8004 4.04116 15.2629C4.04116 15.2629 3.78012 14.4254 5.03988 12.5129C4.82345 11.7129 4.71606 10.8629 4.7111 10.0129C4.71606 9.16286 4.82345 8.31286 5.03988 7.51286C3.78012 5.61286 4.04116 4.77536 4.04116 4.77536C5.3827 4.23786 6.37316 4.57536 6.61933 4.67536C7.30085 4.03786 8.16988 3.65036 9.23304 3.65036C12.9752 3.65036 13.7987 5.98786 14.0383 8.21286C14.3307 7.86286 14.928 7.53786 15.8408 7.53786C17.1444 7.53786 18.1918 7.55036 18.5082 7.55036C18.7635 7.55036 19.0683 7.37536 18.9708 6.86286C17.692 2.86203 14.0391 -0.000473636 9.74107 -0.000473448C4.36167 -0.000473213 -6.7851e-07 4.47703 -4.37114e-07 9.99953Z" fill="#212121"/>
</svg>
