<svg width="20" height="20" viewBox="0 0 20 20" fill="none" xmlns="http://www.w3.org/2000/svg">
<path d="M-6.01032e-07 6.25003L-2.73196e-07 13.75C-1.22337e-07 17.2013 2.79875 20 6.25 20L13.75 20C17.2013 20 20 17.2013 20 13.75L20 6.25003C20 2.79878 17.2012 2.97657e-05 13.75 2.99165e-05L6.25 3.02444e-05C2.79875 3.03952e-05 -7.51891e-07 2.79878 -6.01032e-07 6.25003ZM13.75 1.87503C16.1625 1.87503 18.125 3.83753 18.125 6.25003L18.125 13.75C18.125 16.1625 16.1625 18.125 13.75 18.125L6.25 18.125C3.8375 18.125 1.875 16.1625 1.875 13.75L1.875 6.25003C1.875 3.83753 3.8375 1.87503 6.25 1.87503L13.75 1.87503Z" fill="black"/>
<path d="M5 10C5 12.7613 7.23875 15 10 15C12.7613 15 15 12.7613 15 10C15 7.23878 12.7612 5.00003 10 5.00003C7.23875 5.00003 5 7.23878 5 10ZM13.125 10C13.125 11.7225 11.7225 13.125 10 13.125C8.27625 13.125 6.875 11.7225 6.875 10C6.875 8.27753 8.27625 6.87503 10 6.87503C11.7225 6.87503 13.125 8.27753 13.125 10Z" fill="black"/>
<path d="M5.29123 4.62503C5.29123 4.25707 4.99295 3.95878 4.62499 3.95878C4.25703 3.95878 3.95874 4.25707 3.95874 4.62503C3.95874 4.99299 4.25703 5.29128 4.62499 5.29128C4.99295 5.29128 5.29123 4.99299 5.29123 4.62503Z" fill="black"/>
</svg>
